solid ASCII
  facet normal 0.000000e+00 -1.000000e+00 0.000000e+00
    outer loop
      vertex   -1.850000e-02 -2.325000e-02 -5.000000e-03
      vertex   1.850000e-02 -2.325000e-02 -5.000000e-03
      vertex   -1.850000e-02 -2.325000e-02 5.000000e-03
    endloop
  endfacet
  facet normal 0.000000e+00 -1.000000e+00 0.000000e+00
    outer loop
      vertex   -1.850000e-02 -2.325000e-02 5.000000e-03
      vertex   1.850000e-02 -2.325000e-02 -5.000000e-03
      vertex   1.850000e-02 -2.325000e-02 5.000000e-03
    endloop
  endfacet
  facet normal -1.000000e+00 0.000000e+00 0.000000e+00
    outer loop
      vertex   -1.850000e-02 2.325000e-02 -5.000000e-03
      vertex   -1.850000e-02 -2.325000e-02 -5.000000e-03
      vertex   -1.850000e-02 2.325000e-02 5.000000e-03
    endloop
  endfacet
  facet normal -1.000000e+00 -0.000000e+00 0.000000e+00
    outer loop
      vertex   -1.850000e-02 2.325000e-02 5.000000e-03
      vertex   -1.850000e-02 -2.325000e-02 -5.000000e-03
      vertex   -1.850000e-02 -2.325000e-02 5.000000e-03
    endloop
  endfacet
  facet normal 0.000000e+00 1.000000e+00 -0.000000e+00
    outer loop
      vertex   1.850000e-02 2.325000e-02 -5.000000e-03
      vertex   -1.850000e-02 2.325000e-02 -5.000000e-03
      vertex   1.850000e-02 2.325000e-02 5.000000e-03
    endloop
  endfacet
  facet normal 0.000000e+00 1.000000e+00 0.000000e+00
    outer loop
      vertex   1.850000e-02 2.325000e-02 5.000000e-03
      vertex   -1.850000e-02 2.325000e-02 -5.000000e-03
      vertex   -1.850000e-02 2.325000e-02 5.000000e-03
    endloop
  endfacet
  facet normal 1.000000e+00 0.000000e+00 0.000000e+00
    outer loop
      vertex   1.850000e-02 -2.325000e-02 -5.000000e-03
      vertex   1.850000e-02 2.325000e-02 -5.000000e-03
      vertex   1.850000e-02 -2.325000e-02 5.000000e-03
    endloop
  endfacet
  facet normal 1.000000e+00 -0.000000e+00 0.000000e+00
    outer loop
      vertex   1.850000e-02 -2.325000e-02 5.000000e-03
      vertex   1.850000e-02 2.325000e-02 -5.000000e-03
      vertex   1.850000e-02 2.325000e-02 5.000000e-03
    endloop
  endfacet
  facet normal 0.000000e+00 0.000000e+00 1.000000e+00
    outer loop
      vertex   1.850000e-02 2.325000e-02 5.000000e-03
      vertex   -1.850000e-02 2.325000e-02 5.000000e-03
      vertex   1.850000e-02 -2.325000e-02 5.000000e-03
    endloop
  endfacet
  facet normal 0.000000e+00 0.000000e+00 1.000000e+00
    outer loop
      vertex   1.850000e-02 -2.325000e-02 5.000000e-03
      vertex   -1.850000e-02 2.325000e-02 5.000000e-03
      vertex   -1.850000e-02 -2.325000e-02 5.000000e-03
    endloop
  endfacet
  facet normal 0.000000e+00 0.000000e+00 -1.000000e+00
    outer loop
      vertex   1.850000e-02 -2.325000e-02 -5.000000e-03
      vertex   -1.850000e-02 -2.325000e-02 -5.000000e-03
      vertex   1.850000e-02 2.325000e-02 -5.000000e-03
    endloop
  endfacet
  facet normal -0.000000e+00 0.000000e+00 -1.000000e+00
    outer loop
      vertex   1.850000e-02 2.325000e-02 -5.000000e-03
      vertex   -1.850000e-02 -2.325000e-02 -5.000000e-03
      vertex   -1.850000e-02 2.325000e-02 -5.000000e-03
    endloop
  endfacet
endsolid
